<svg xmlns="http://www.w3.org/2000/svg" enable-background="new 0 0 192 192" height="24px" viewBox="0 0 192 192" width="24px"><rect fill="none" height="192" width="192"/><g><g><circle cx="96" cy="96" fill="#FFFFFF" r="88"/></g></g><g><path d="M183.99,96c-0.22,38.38-25.27,70.9-59.99,82.48c-8.8,2.93-18.21,4.52-28,4.52 C47.57,183.01,8.27,144.1,8,96c0,0.17,0,0.33,0,0.5C8,144.82,47.4,184,96,184c9.79,0,19.2-1.59,28-4.52 c34.87-11.63,60-44.39,60-82.98C184,96.33,183.99,96.17,183.99,96z" enable-background="new" opacity=".1"/><path d="M184,96c0-38.81-25.13-71.75-60-83.45C115.2,9.6,105.79,8,96,8 C47.4,8,8,47.4,8,96" enable-background="new" fill="#FFFFFF" opacity=".4"/></g><g><g><linearGradient gradientUnits="userSpaceOnUse" id="SVGID_1_" x1="19.7945" x2="172.2079" y1="62.9962" y2="62.9962"><stop offset="0" style="stop-color:#D93025"/><stop offset="1" style="stop-color:#EA4335"/></linearGradient><path d="M19.79,51.98l12.13,37.01l25.98,29L96,52l76.21-0.01C156.99,25.69,128.56,8,96,8 C63.44,8,35.01,25.69,19.79,51.98z" fill="url(#SVGID_1_)"/><linearGradient gradientTransform="matrix(-0.5 -0.866 0.866 -0.5 69.4596 226.1023)" gradientUnits="userSpaceOnUse" id="SVGID_00000016044370879352428100000012005247102497070224_" x1="23.195" x2="175.6182" y1="55.0425" y2="55.0425"><stop offset="0" style="stop-color:#1E8E3E"/><stop offset="1" style="stop-color:#34A853"/></linearGradient><path d="M95.99,184l25.98-29.01l12.12-37l-76.2,0 l-38.11-66c-15.16,26.33-16.27,59.8,0.01,88C36.08,168.19,65.62,183.97,95.99,184z" fill="url(#SVGID_00000016044370879352428100000012005247102497070224_)"/><linearGradient gradientTransform="matrix(-0.5 0.866 -0.866 -0.5 199.0992 37.05)" gradientUnits="userSpaceOnUse" id="SVGID_00000037674419655208914710000006753074731665242018_" x1="32.5437" x2="184.9668" y1="26.8198" y2="26.8198"><stop offset="0" style="stop-color:#FBBC04"/><stop offset="1" style="stop-color:#FCC934"/></linearGradient><path d="M172.21,52L96,52l38.1,66L96,184 c30.38-0.03,59.92-15.81,76.2-44.01C188.48,111.79,187.37,78.32,172.21,52z" fill="url(#SVGID_00000037674419655208914710000006753074731665242018_)"/><ellipse cx="96" cy="95.99" fill="#FFFFFF" rx="43.99" ry="44"/><ellipse cx="96" cy="95.99" fill="#1A73E8" rx="35.74" ry="35.75"/></g></g></svg>